# Blender 4.0.2
# www.blender.org
mtllib ponte.mtl
o archata
v 27.804527 0.043185 20.017830
v 27.804527 10.582373 20.017830
v 27.804527 0.043181 -19.964479
v 27.804527 10.582369 -19.964479
v 3.277624 0.043185 20.017830
v 27.804527 5.240746 10.317023
v 27.804527 5.240744 -10.263675
v 27.804527 0.043185 20.017830
v 3.277624 0.043185 20.017830
v 3.277624 10.582373 20.017830
v 3.277624 0.043181 -19.964479
v 3.277624 10.582369 -19.964479
v 3.277624 5.240746 10.317023
v 3.277624 5.240744 -10.263675
v 27.804527 5.240746 10.317023
v 27.804527 0.043185 20.017830
v 27.804527 5.221701 10.815802
v 27.804527 5.152165 11.356490
v 27.804527 5.032809 11.933880
v 27.804527 4.864782 12.542407
v 27.804527 4.649703 13.176216
v 27.804527 4.389642 13.829204
v 27.804527 4.087104 14.495079
v 27.804527 3.745002 15.167427
v 27.804527 3.366633 15.839776
v 27.804527 2.955638 16.505650
v 27.804527 2.515976 17.158636
v 27.804527 2.051883 17.792444
v 27.804527 1.567826 18.400974
v 27.804527 1.068467 18.978365
v 27.804527 0.558617 19.519051
v 27.804527 0.043181 -19.964479
v 27.804527 5.240744 -10.263675
v 27.804527 0.558614 -19.465700
v 27.804527 1.068465 -18.925014
v 27.804527 1.567824 -18.347624
v 27.804527 2.051881 -17.739098
v 27.804527 2.515974 -17.105286
v 27.804527 2.955636 -16.452299
v 27.804527 3.366631 -15.786424
v 27.804527 3.745000 -15.114076
v 27.804527 4.087102 -14.441727
v 27.804527 4.389640 -13.775852
v 27.804527 4.649701 -13.122867
v 27.804527 4.864780 -12.489058
v 27.804527 5.032807 -11.880527
v 27.804527 5.152163 -11.303138
v 27.804527 5.221699 -10.762452
v 3.277624 0.043185 20.017830
v 3.277624 5.240746 10.317023
v 3.277624 0.558617 19.519051
v 3.277624 1.068467 18.978365
v 3.277624 1.567826 18.400974
v 3.277624 2.051883 17.792444
v 3.277624 2.515976 17.158636
v 3.277624 2.955638 16.505650
v 3.277624 3.366633 15.839776
v 3.277624 3.745002 15.167427
v 3.277624 4.087104 14.495079
v 3.277624 4.389642 13.829204
v 3.277624 4.649703 13.176216
v 3.277624 4.864782 12.542407
v 3.277624 5.032809 11.933880
v 3.277624 5.152165 11.356490
v 3.277624 5.221701 10.815802
v 3.277624 5.240744 -10.263675
v 3.277624 0.043181 -19.964479
v 3.277624 5.221699 -10.762452
v 3.277624 5.152163 -11.303138
v 3.277624 5.032807 -11.880527
v 3.277624 4.864780 -12.489058
v 3.277624 4.649701 -13.122867
v 3.277624 4.389640 -13.775852
v 3.277624 4.087102 -14.441727
v 3.277624 3.745000 -15.114076
v 3.277624 3.366631 -15.786424
v 3.277624 2.955636 -16.452299
v 3.277624 2.515974 -17.105286
v 3.277624 2.051881 -17.739098
v 3.277624 1.567824 -18.347624
v 3.277624 1.068465 -18.925014
v 3.277624 0.558614 -19.465700
v 27.804527 10.582373 20.017830
v 27.804527 0.043185 20.017830
v 3.277624 10.582373 20.017830
v 3.277624 0.043185 20.017830
v 27.804527 0.043185 20.017830
v 3.277624 0.043185 20.017830
v 27.804527 10.582373 20.017830
v 3.277624 10.582373 20.017830
v 29.182629 0.018857 33.128323
v 1.638800 0.018857 33.128323
v 29.182629 0.018857 33.128323
v 1.638800 0.018857 33.128323
v 29.182629 0.018857 33.128323
v 1.638800 0.018857 33.128323
v 29.182629 0.018857 33.128323
v 1.638800 0.018857 33.128323
v 29.182629 0.018857 33.128323
v 1.638800 0.018857 33.128323
v 29.182629 0.018851 -33.280693
v 1.638800 0.018851 -33.280693
v 29.182629 0.018851 -33.280693
v 1.638800 0.018851 -33.280693
v 26.052607 10.582373 20.017830
v 5.029546 10.582373 20.017830
v 5.029546 10.582369 -19.964479
v 26.052607 10.582369 -19.964479
v 27.063873 0.018857 33.128323
v 3.757556 0.018851 -33.280693
v 3.757556 0.018857 33.128323
v 27.063873 0.018851 -33.280693
v 27.804527 10.582369 -19.964479
v 27.804527 10.582373 20.017830
v 3.277624 10.582369 -19.964479
v 3.277624 10.582373 20.017830
v 26.052607 10.582369 -19.964479
v 5.029545 10.582373 20.017830
v 3.277624 10.582373 20.017830
v 1.638800 0.018857 33.128323
v 27.804527 10.582373 20.017830
v 29.182629 0.018857 33.128323
v 29.182629 0.018851 -33.280693
v 29.182629 0.018851 -33.280693
v 1.638800 0.018851 -33.280693
v 27.063873 0.018851 -33.280693
v 26.052607 10.582373 20.017830
v 5.029546 10.582369 -19.964479
v 3.757556 0.018851 -33.280693
v 3.757556 0.018857 33.128323
v 27.063873 0.018857 33.128323
v 27.804527 10.582369 -19.964479
v 27.804527 10.582373 20.017830
v 3.277624 10.582369 -19.964479
v 3.277624 10.582373 20.017830
v 26.052607 10.582369 -19.964479
v 5.029545 10.582373 20.017830
v 3.277624 10.582373 20.017830
v 1.638800 0.018857 33.128323
v 27.804527 10.582373 20.017830
v 29.182629 0.018857 33.128323
v 29.182629 0.018851 -33.280693
v 29.182629 0.018851 -33.280693
v 1.638800 0.018851 -33.280693
v 27.063873 0.018851 -33.280693
v 26.052607 10.582373 20.017830
v 5.029546 10.582369 -19.964479
v 3.757556 0.018851 -33.280693
v 3.757556 0.018857 33.128323
v 27.063873 0.018857 33.128323
v 27.804527 10.582369 -19.964479
v 27.804527 10.582373 20.017830
v 3.277624 10.582369 -19.964479
v 3.277624 10.582373 20.017830
v 26.052607 10.582369 -19.964479
v 5.029545 10.582373 20.017830
v 3.277624 10.582373 20.017830
v 1.638800 0.018857 33.128323
v 27.804527 10.582373 20.017830
v 29.182629 0.018857 33.128323
v 29.182629 0.018851 -33.280693
v 29.182629 0.018851 -33.280693
v 1.638800 0.018851 -33.280693
v 27.063873 0.018851 -33.280693
v 26.052607 10.582373 20.017830
v 5.029546 10.582369 -19.964479
v 3.757556 0.018851 -33.280693
v 3.757556 0.018857 33.128323
v 27.063873 0.018857 33.128323
v 27.804527 10.582369 -19.964479
v 27.804527 10.582373 20.017830
v 3.277624 10.582369 -19.964479
v 3.277624 10.582373 20.017830
v 26.052607 10.582369 -19.964479
v 5.029545 10.582373 20.017830
v 3.277624 10.582373 20.017830
v 1.638800 0.018857 33.128323
v 27.804527 10.582373 20.017830
v 29.182629 0.018857 33.128323
v 29.182629 0.018851 -33.280693
v 29.182629 0.018851 -33.280693
v 1.638800 0.018851 -33.280693
v 27.063873 0.018851 -33.280693
v 26.052607 10.582373 20.017830
v 5.029546 10.582369 -19.964479
v 3.757556 0.018851 -33.280693
v 3.757556 0.018857 33.128323
v 27.063873 0.018857 33.128323
v 27.804527 10.582369 -19.964479
v 27.804527 10.582373 20.017830
v 3.277624 10.582369 -19.964479
v 3.277624 10.582373 20.017830
v 26.052607 10.582369 -19.964479
v 5.029545 10.582373 20.017830
v 3.277624 10.582373 20.017830
v 1.638800 0.018857 33.128323
v 27.804527 10.582373 20.017830
v 29.182629 0.018857 33.128323
v 29.182629 0.018851 -33.280693
v 29.182629 0.018851 -33.280693
v 1.638800 0.018851 -33.280693
v 27.063873 0.018851 -33.280693
v 26.052607 10.582373 20.017830
v 5.029546 10.582369 -19.964479
v 3.757556 0.018851 -33.280693
v 3.757556 0.018857 33.128323
v 27.063873 0.018857 33.128323
v 27.804527 10.582369 -19.964479
v 27.804527 10.582373 20.017830
v 3.277624 10.582369 -19.964479
v 3.277624 10.582373 20.017830
v 26.052607 10.582369 -19.964479
v 5.029545 10.582373 20.017830
v 3.277624 10.582373 20.017830
v 1.638800 0.018857 33.128323
v 27.804527 10.582373 20.017830
v 29.182629 0.018857 33.128323
v 29.182629 0.018851 -33.280693
v 29.182629 0.018851 -33.280693
v 1.638800 0.018851 -33.280693
v 27.063873 0.018851 -33.280693
v 26.052607 10.582373 20.017830
v 5.029546 10.582369 -19.964479
v 3.757556 0.018851 -33.280693
v 3.757556 0.018857 33.128323
v 27.063873 0.018857 33.128323
v 27.804527 12.362398 -19.964479
v 27.804527 12.362402 20.017830
v 3.277624 12.362398 -19.964479
v 3.277624 12.362402 20.017830
v 26.052607 12.362398 -19.964479
v 5.029545 12.362402 20.017830
v 3.277624 12.362402 20.017830
v 1.638800 2.017837 33.128323
v 27.804527 12.362402 20.017830
v 29.182629 2.017837 33.128323
v 29.182629 2.017832 -33.280693
v 29.182629 2.017832 -33.280693
v 1.638800 2.017832 -33.280693
v 27.063873 2.017832 -33.280693
v 26.052607 12.362402 20.017830
v 5.029546 12.362398 -19.964479
v 3.757556 2.017832 -33.280693
v 3.757556 2.017837 33.128323
v 27.063873 2.017837 33.128323
vn -0.0000 -0.0000 1.0000
vn -1.0000 -0.0000 -0.0000
vn 1.0000 -0.0000 -0.0000
vn -0.0000 -1.0000 0.0018
vn -0.7430 0.0132 0.6691
vn -0.7430 0.0131 -0.6691
vn -0.0000 1.0000 -0.0000
vn -0.0000 -1.0000 -0.0000
vn -0.0000 -0.9993 0.0382
vn -0.0000 -0.9918 0.1276
vn -0.0000 -0.9793 0.2024
vn -0.0000 -0.9639 0.2662
vn -0.0000 -0.9470 0.3213
vn -0.0000 -0.9290 0.3700
vn -0.0000 -0.9104 0.4137
vn -0.0000 -0.8913 0.4535
vn -0.0000 -0.8715 0.4904
vn -0.0000 -0.8510 0.5252
vn -0.0000 -0.8295 0.5585
vn -0.0000 -0.8068 0.5908
vn -0.0000 -0.7826 0.6225
vn -0.0000 -0.7564 0.6541
vn -0.0000 -0.7275 0.6861
vn -0.0000 -0.6954 0.7186
vn -0.0000 -0.9993 -0.0382
vn -0.0000 -0.9918 -0.1276
vn -0.0000 -0.9793 -0.2024
vn -0.0000 -0.9639 -0.2662
vn -0.0000 -0.9470 -0.3213
vn -0.0000 -0.9290 -0.3700
vn -0.0000 -0.9104 -0.4137
vn -0.0000 -0.8913 -0.4535
vn -0.0000 -0.8715 -0.4904
vn -0.0000 -0.8510 -0.5252
vn -0.0000 -0.8295 -0.5585
vn -0.0000 -0.8068 -0.5908
vn -0.0000 -0.7826 -0.6225
vn -0.0000 -0.7564 -0.6541
vn -0.0000 -0.7275 -0.6861
vn -0.0000 -0.6954 -0.7186
vn 0.7496 0.0111 0.6618
vn 0.7496 0.0111 -0.6618
vn -0.0000 0.7965 0.6047
vn -0.0000 -1.0000 -0.0019
vn -0.9923 -0.0000 -0.1240
vn 0.9945 -0.0000 -0.1045
vn -0.7425 0.0131 -0.6697
vn -0.7425 0.0131 0.6697
vn 0.7490 0.0111 -0.6625
vn 0.7490 0.0111 0.6625
vn -0.0000 1.0000 -0.0018
vn -0.0000 0.8010 -0.5987
vn 0.9947 -0.0000 0.1029
vn -0.9925 -0.0000 0.1221
vn 0.1385 0.8926 -0.4290
vn 0.1385 0.8926 0.4290
vn -0.0860 0.8984 0.4306
vn -0.0860 0.8984 -0.4306
vn 1.0000 0.0001 -0.0000
vn -0.0000 -0.0000 -0.0000
vn -0.1168 0.8954 0.4298
vn -0.1168 0.8954 -0.4298
vn -0.1166 0.8937 0.4332
vn -0.1166 0.8937 -0.4332
vn -0.0858 0.8968 -0.4340
vn -0.0859 0.8968 0.4340
vn 0.1078 0.8947 -0.4335
vn 0.1077 0.8947 0.4335
vn -0.1383 -0.8910 0.4324
vn -0.1382 -0.8910 -0.4324
vn -1.0000 -0.0001 -0.0000
vn -0.0000 -0.6247 -0.7809
vn 0.1080 0.8963 0.4300
vn 0.1079 0.8963 -0.4300
vn 0.1382 0.8910 0.4324
vn 0.1383 0.8910 -0.4324
vn -0.9947 -0.0000 -0.1029
vn -0.9971 -0.0000 -0.0757
vn 0.9955 -0.0000 -0.0951
vn -0.0000 -0.0000 -1.0000
vn 0.9953 -0.0000 0.0966
vn -0.9970 -0.0000 0.0769
vn -0.0000 0.7851 0.6194
vn -0.0000 0.7897 -0.6135
vt 0.375000 0.687500
vt 0.375000 0.562500
vt 0.375000 0.500000
vt 0.625000 0.500000
vt 0.625000 0.750000
vt 0.375000 0.750000
vt 0.375000 0.741248
vt 0.375000 0.738360
vt 0.375000 0.735225
vt 0.375000 0.731871
vt 0.375000 0.728333
vt 0.375000 0.724643
vt 0.375000 0.720837
vt 0.375000 0.716951
vt 0.375000 0.713024
vt 0.375000 0.709093
vt 0.375000 0.705196
vt 0.375000 0.701370
vt 0.375000 0.697653
vt 0.375000 0.694079
vt 0.375000 0.690684
vt 0.375000 0.532439
vt 0.375000 0.531845
vt 0.375000 0.530958
vt 0.375000 0.529788
vt 0.375000 0.528345
vt 0.375000 0.526643
vt 0.375000 0.524699
vt 0.375000 0.522532
vt 0.375000 0.520162
vt 0.375000 0.517612
vt 0.375000 0.514906
vt 0.375000 0.512072
vt 0.375000 0.509135
vt 0.375000 0.506125
vt 0.375000 0.503070
vt 0.000000 0.000000
vt 0.375000 0.717561
vt 0.375000 0.718155
vt 0.375000 0.719042
vt 0.375000 0.720212
vt 0.375000 0.721655
vt 0.375000 0.723357
vt 0.375000 0.725301
vt 0.375000 0.727468
vt 0.375000 0.729838
vt 0.375000 0.732388
vt 0.375000 0.735094
vt 0.375000 0.737928
vt 0.375000 0.740865
vt 0.375000 0.743875
vt 0.375000 0.746930
vt 0.375000 0.508753
vt 0.375000 0.511640
vt 0.375000 0.514775
vt 0.375000 0.518129
vt 0.375000 0.521667
vt 0.375000 0.525357
vt 0.375000 0.529163
vt 0.375000 0.533049
vt 0.375000 0.536976
vt 0.375000 0.540907
vt 0.375000 0.544804
vt 0.375000 0.548630
vt 0.375000 0.552347
vt 0.375000 0.555921
vt 0.375000 0.559316
vt 0.375000 0.531250
vt 0.375000 0.718750
s 0
usemtl mAT_ARCATA
f 15/1/1 6/1/2 13/1/1 50/1/2
f 7/2/1 33/2/2 66/2/1 14/2/2
f 32/3/3 3/3/3 4/4/3 2/5/3 1/6/3 16/6/3 31/7/3 30/8/3 29/9/3 28/10/3 27/11/3 26/12/3 25/13/3 24/14/3 23/15/3 22/16/3 21/17/3 20/18/3 19/19/3 18/20/3 17/21/3 15/1/3 6/1/3 7/2/3 33/2/3 48/22/3 47/23/3 46/24/3 45/25/3 44/26/3 43/27/3 42/28/3 41/29/3 40/30/3 39/31/3 38/32/3 37/33/3 36/34/3 35/35/3 34/36/3
f 3/3/4 11/3/4 102/3/4 101/3/4
f 16/37/1 8/37/5 93/37/1 95/37/6
f 66/2/2 14/2/2 13/1/2 50/1/2 65/38/2 64/39/2 63/40/2 62/41/2 61/42/2 60/43/2 59/44/2 58/45/2 57/46/2 56/47/2 55/48/2 54/49/2 53/50/2 52/51/2 51/52/2 49/6/2 9/6/2 10/5/2 12/4/2 11/3/2 67/3/2 82/53/2 81/54/2 80/55/2 79/56/2 78/57/2 77/58/2 76/59/2 75/60/2 74/61/2 73/62/2 72/63/2 71/64/2 70/65/2 69/66/2 68/67/2
f 2/5/7 1/6/1 84/6/7 83/5/1
f 107/4/2 108/4/1 117/4/2 128/4/1
f 6/1/8 13/1/8 14/2/8 7/2/8
f 3/3/1 4/4/1 108/4/1 107/4/1 12/4/1 11/3/1
f 66/2/9 68/67/9 48/67/9 33/2/9
f 68/67/10 69/66/10 47/66/10 48/67/10
f 69/66/11 70/65/11 46/65/11 47/66/11
f 70/65/12 71/64/12 45/64/12 46/65/12
f 71/64/13 72/63/13 44/63/13 45/64/13
f 72/63/14 73/62/14 43/62/14 44/63/14
f 73/62/15 74/61/15 42/61/15 43/62/15
f 74/61/16 75/68/16 41/68/16 42/61/16
f 75/68/17 76/30/17 40/30/17 41/68/17
f 76/30/18 77/31/18 39/31/18 40/30/18
f 77/31/19 78/32/19 38/32/19 39/31/19
f 78/32/20 79/33/20 37/33/20 38/32/20
f 79/33/21 80/34/21 36/34/21 37/33/21
f 80/34/22 81/35/22 35/35/22 36/34/22
f 81/35/23 82/36/23 34/36/23 35/35/23
f 82/36/24 67/3/24 32/3/24 34/36/24
f 15/1/25 17/21/25 65/21/25 50/1/25
f 17/21/26 18/20/26 64/20/26 65/21/26
f 18/20/27 19/19/27 63/19/27 64/20/27
f 19/19/28 20/18/28 62/18/28 63/19/28
f 20/18/29 21/17/29 61/17/29 62/18/29
f 21/17/30 22/16/30 60/16/30 61/17/30
f 22/16/31 23/15/31 59/15/31 60/16/31
f 23/15/32 24/69/32 58/69/32 59/15/32
f 24/69/33 25/46/33 57/46/33 58/69/33
f 25/46/34 26/47/34 56/47/34 57/46/34
f 26/47/35 27/48/35 55/48/35 56/47/35
f 27/48/36 28/49/36 54/49/36 55/48/36
f 28/49/37 29/50/37 53/50/37 54/49/37
f 29/50/38 30/51/38 52/51/38 53/50/38
f 30/51/39 31/52/39 51/52/39 52/51/39
f 31/52/40 16/6/40 49/6/40 51/52/40
f 5/37/1 49/37/41 96/37/1 92/37/42
f 86/6/7 85/5/1 90/5/7 88/6/1
f 9/6/7 10/5/1 85/5/7 86/6/1
f 87/6/43 89/5/43 105/5/43 106/5/43 90/5/43 88/6/43 100/6/43 98/6/43 94/6/43 96/6/43 92/6/43 93/6/43 95/6/43 91/6/43 97/6/43 99/6/43
f 8/37/44 93/37/44 92/37/44 5/37/44
f 83/5/7 84/6/1 87/6/7 89/5/1
f 10/5/8 2/5/1 83/5/1 89/5/8 105/5/8 106/5/8 90/5/1 85/5/1
f 1/6/1 16/6/5 95/6/1 91/6/6
f 86/6/1 88/6/41 100/6/1 98/6/42
f 87/6/1 84/6/5 97/6/1 99/6/6
f 49/6/1 9/6/41 94/6/1 96/6/42
f 9/6/1 86/6/41 98/6/1 94/6/42
f 84/6/1 1/6/5 91/6/1 97/6/6
f 88/6/45 100/6/45 90/5/45
f 89/5/46 99/6/46 87/6/46
f 103/3/1 101/3/2 102/3/1 104/3/2
f 32/3/1 3/3/47 101/3/1 103/3/48
f 11/3/1 67/3/49 104/3/1 102/3/50
f 67/3/51 32/3/51 103/3/51 104/3/51
f 12/4/52 107/4/52 108/4/52 4/4/52 32/3/52 3/3/52 103/3/52 101/3/52 112/3/52 110/3/52 104/3/52 102/3/52 67/3/52 11/3/52
f 32/3/53 103/3/53 4/4/53
f 67/3/54 12/4/54 104/3/54
f 127/5/2 118/5/1 137/5/2 146/5/1
f 100/6/55 90/5/1 119/5/56 120/6/1
f 105/37/57 109/37/1 131/37/58 127/37/1
f 2/5/2 10/5/1 116/5/2 114/5/1
f 106/5/59 90/5/1 119/5/2 118/5/2
f 105/37/60 108/37/60 117/37/60 127/37/60
f 89/5/61 99/6/1 122/6/62 121/5/1
f 106/37/7 107/37/7 128/37/7 118/37/7
f 10/5/60 12/4/60 115/4/60 116/5/60
f 103/3/63 4/4/1 113/4/64 123/3/1
f 101/3/63 4/4/1 113/4/64 124/3/1
f 108/4/2 4/4/1 113/4/2 117/4/1
f 108/37/65 112/37/1 126/37/66 117/37/1
f 107/37/67 110/37/1 129/37/68 128/37/1
f 101/3/1 103/3/1 123/3/1 124/3/1
f 89/5/2 105/5/1 127/5/2 121/5/1
f 104/3/69 12/4/1 115/4/70 125/3/1
f 105/5/2 106/5/3 118/5/71 127/5/1
f 104/3/2 110/3/1 129/3/2 125/3/1
f 12/4/2 107/4/1 128/4/2 115/4/1
f 112/3/2 101/3/1 124/3/2 126/3/1
f 106/37/8 111/37/72 130/37/8 118/37/8
f 4/4/60 2/5/60 114/5/60 113/4/60
f 143/3/63 132/4/1 151/4/64 162/3/1
f 121/5/61 122/6/1 141/6/62 140/5/1
f 118/37/73 130/37/1 149/37/74 137/37/1
f 115/4/2 128/4/1 147/4/2 134/4/1
f 124/3/1 123/3/1 142/3/1 143/3/1
f 127/37/57 131/37/1 150/37/58 146/37/1
f 113/4/60 114/5/60 133/5/60 132/4/60
f 128/4/2 117/4/1 136/4/2 147/4/1
f 124/3/63 113/4/1 132/4/64 143/3/1
f 116/5/60 115/4/60 134/4/60 135/5/60
f 127/37/60 117/37/60 136/37/60 146/37/60
f 125/3/75 115/4/1 134/4/76 144/3/1
f 114/5/2 116/5/1 135/5/2 133/5/1
f 118/37/60 128/37/60 147/37/60 137/37/60
f 126/3/2 124/3/1 143/3/2 145/3/1
f 117/4/2 113/4/1 132/4/2 136/4/1
f 117/37/65 126/37/1 145/37/66 136/37/1
f 123/3/63 113/4/1 132/4/64 142/3/1
f 118/5/2 119/5/1 138/5/2 137/5/1
f 128/37/67 129/37/1 148/37/68 147/37/1
f 121/5/2 127/5/1 146/5/2 140/5/1
f 120/6/55 119/5/1 138/5/56 139/6/1
f 125/3/2 129/3/1 148/3/2 144/3/1
f 155/4/2 151/4/1 170/4/2 174/4/1
f 135/5/60 134/4/60 153/4/60 154/5/60
f 146/37/60 136/37/60 155/37/60 165/37/60
f 144/3/75 134/4/1 153/4/76 163/3/1
f 133/5/2 135/5/1 154/5/2 152/5/1
f 137/37/60 147/37/60 166/37/60 156/37/60
f 145/3/2 143/3/1 162/3/2 164/3/1
f 136/4/2 132/4/1 151/4/2 155/4/1
f 136/37/65 145/37/1 164/37/66 155/37/1
f 142/3/63 132/4/1 151/4/64 161/3/1
f 137/5/2 138/5/1 157/5/2 156/5/1
f 147/37/67 148/37/1 167/37/68 166/37/1
f 140/5/2 146/5/1 165/5/2 159/5/1
f 139/6/55 138/5/1 157/5/56 158/6/1
f 144/3/2 148/3/1 167/3/2 163/3/1
f 146/5/2 137/5/1 156/5/2 165/5/1
f 140/5/61 141/6/1 160/6/62 159/5/1
f 137/37/73 149/37/1 168/37/74 156/37/1
f 134/4/2 147/4/1 166/4/2 153/4/1
f 143/3/1 142/3/1 161/3/1 162/3/1
f 146/37/57 150/37/1 169/37/58 165/37/1
f 132/4/60 133/5/60 152/5/60 151/4/60
f 147/4/2 136/4/1 155/4/2 166/4/1
f 184/5/2 175/5/1 194/5/2 203/5/1
f 155/37/65 164/37/1 183/37/66 174/37/1
f 161/3/63 151/4/1 170/4/64 180/3/1
f 156/5/2 157/5/1 176/5/2 175/5/1
f 166/37/67 167/37/1 186/37/68 185/37/1
f 159/5/2 165/5/1 184/5/2 178/5/1
f 158/6/55 157/5/1 176/5/56 177/6/1
f 163/3/2 167/3/1 186/3/2 182/3/1
f 165/5/2 156/5/1 175/5/2 184/5/1
f 159/5/61 160/6/1 179/6/62 178/5/1
f 156/37/73 168/37/1 187/37/74 175/37/1
f 153/4/2 166/4/1 185/4/2 172/4/1
f 162/3/1 161/3/1 180/3/1 181/3/1
f 165/37/57 169/37/1 188/37/58 184/37/1
f 151/4/60 152/5/60 171/5/60 170/4/60
f 166/4/2 155/4/1 174/4/2 185/4/1
f 162/3/63 151/4/1 170/4/64 181/3/1
f 154/5/60 153/4/60 172/4/60 173/5/60
f 165/37/60 155/37/60 174/37/60 184/37/60
f 163/3/75 153/4/1 172/4/76 182/3/1
f 152/5/2 154/5/1 173/5/2 171/5/1
f 156/37/60 166/37/60 185/37/60 175/37/60
f 164/3/2 162/3/1 181/3/2 183/3/1
f 178/5/61 179/6/1 198/6/62 197/5/1
f 175/37/73 187/37/1 206/37/74 194/37/1
f 172/4/2 185/4/1 204/4/2 191/4/1
f 181/3/1 180/3/1 199/3/1 200/3/1
f 184/37/57 188/37/1 207/37/58 203/37/1
f 170/4/60 171/5/60 190/5/60 189/4/60
f 185/4/2 174/4/1 193/4/2 204/4/1
f 181/3/63 170/4/1 189/4/64 200/3/1
f 173/5/60 172/4/60 191/4/60 192/5/60
f 184/37/60 174/37/60 193/37/60 203/37/60
f 182/3/75 172/4/1 191/4/76 201/3/1
f 171/5/3 173/5/1 192/5/3 190/5/1
f 175/37/60 185/37/60 204/37/60 194/37/60
f 183/3/2 181/3/1 200/3/2 202/3/1
f 174/4/2 170/4/1 189/4/2 193/4/1
f 174/37/65 183/37/1 202/37/66 193/37/1
f 180/3/63 170/4/1 189/4/64 199/3/1
f 175/5/2 176/5/1 195/5/2 194/5/1
f 185/37/67 186/37/1 205/37/68 204/37/1
f 178/5/2 184/5/1 203/5/2 197/5/1
f 177/6/55 176/5/1 195/5/56 196/6/1
f 182/3/2 186/3/1 205/3/2 201/3/1
f 200/3/63 189/4/1 208/4/64 219/3/1
f 192/5/60 191/4/60 210/4/60 211/5/60
f 203/37/60 193/37/60 212/37/60 222/37/60
f 201/3/69 191/4/1 210/4/70 220/3/1
f 194/37/60 204/37/60 223/37/60 213/37/60
f 202/3/2 200/3/1 219/3/2 221/3/1
f 193/4/2 189/4/1 208/4/2 212/4/1
f 193/37/65 202/37/1 221/37/66 212/37/1
f 199/3/63 189/4/1 208/4/64 218/3/1
f 194/5/2 195/5/1 214/5/2 213/5/1
f 204/37/67 205/37/1 224/37/68 223/37/1
f 197/5/2 203/5/1 222/5/2 216/5/1
f 196/6/55 195/5/1 214/5/56 215/6/1
f 201/3/2 205/3/1 224/3/2 220/3/1
f 197/5/61 198/6/1 217/6/62 216/5/1
f 194/37/73 206/37/1 225/37/74 213/37/1
f 191/4/2 204/4/1 223/4/2 210/4/1
f 200/3/1 199/3/1 218/3/1 219/3/1
f 203/37/57 207/37/1 226/37/58 222/37/1
f 189/4/60 190/5/60 209/5/60 208/4/60
f 219/3/77 208/4/77 227/4/77 238/3/77
f 208/4/3 227/4/3 228/5/3 209/5/3
f 212/37/78 231/37/78 240/37/78 221/37/78
f 220/3/54 210/4/54 229/4/54 239/3/54
f 211/5/2 230/5/2 229/4/2 210/4/2
f 223/37/79 224/37/79 243/37/79 242/37/79
f 221/3/80 240/3/80 238/3/80 219/3/80
f 212/4/1 208/4/1 227/4/1 231/4/1
f 220/3/80 239/3/80 243/3/80 224/3/80
f 218/3/53 237/3/53 227/4/53 208/4/53
f 213/5/80 214/5/80 233/5/80 232/5/80
f 213/37/81 232/37/81 244/37/81 225/37/81
f 216/5/80 222/5/80 241/5/80 235/5/80
f 215/6/45 234/6/45 233/5/45 214/5/45
f 222/37/82 226/37/82 245/37/82 241/37/82
f 210/4/1 223/4/1 242/4/1 229/4/1
f 216/5/46 235/5/46 236/6/46 217/6/46
f 222/37/2 241/37/2 231/37/2 212/37/2
f 219/3/1 218/3/7 237/3/1 238/3/7
f 213/37/3 223/37/3 242/37/3 232/37/3
f 225/37/1 244/37/1 234/6/1 215/6/1
f 245/37/1 226/37/1 217/6/1 236/6/1
f 236/6/83 235/5/83 241/37/83 245/37/83
f 233/5/83 234/6/83 244/37/83 232/37/83
f 232/37/7 242/37/7 229/37/7 233/37/7
f 243/37/84 239/37/84 229/37/84 242/37/84
f 227/4/84 238/3/84 240/3/84 231/37/84
f 241/37/7 235/37/7 227/37/7 231/37/7
o SU
v 26.052607 10.582369 -19.964479
v 5.029545 10.582373 20.017830
v 27.063873 0.018851 -33.280693
v 26.052607 10.582373 20.017830
v 5.029546 10.582369 -19.964479
v 3.757556 0.018851 -33.280693
v 3.757556 0.018857 33.128323
v 27.063873 0.018857 33.128323
vn 0.0593 -0.6204 -0.7820
vn -1.0000 -0.0000 -0.0000
vn -0.0000 0.7834 -0.6215
vn -0.0000 0.7787 0.6274
vn -0.0000 1.0000 -0.0000
vt 0.000000 0.000000
s 0
usemtl Material.001
f 248/70/85 251/70/86 250/70/87 246/70/87
f 249/70/88 247/70/88 252/70/88 253/70/88
f 247/70/89 249/70/89 246/70/89 250/70/89
